<mxfile host="app.diagrams.net" modified="2023-04-17T14:45:51.734Z" agent="Mozilla/5.0 (Windows NT 10.0; Win64; x64) AppleWebKit/537.36 (KHTML, like Gecko) Chrome/110.0.0.0 Safari/537.36" etag="0n5ldvfes1BsVW3Ywr8g" version="21.1.8" type="github">
  <diagram name="第 1 页" id="i18JGJ34kbMfS3A-ol3H">
    <mxGraphModel dx="1993" dy="1578" grid="0" gridSize="10" guides="1" tooltips="1" connect="1" arrows="1" fold="1" page="0" pageScale="1" pageWidth="827" pageHeight="1169" math="0" shadow="0">
      <root>
        <mxCell id="0" />
        <mxCell id="1" parent="0" />
        <mxCell id="nT0fC0NrmDzr177wuWXt-1" value="" style="ellipse;whiteSpace=wrap;html=1;aspect=fixed;fillColor=none;strokeColor=default;strokeWidth=2;" parent="1" vertex="1">
          <mxGeometry x="80" y="-430" width="350" height="350" as="geometry" />
        </mxCell>
        <mxCell id="0nrVe5YEfz76suIIfthU-1" value="" style="endArrow=classic;html=1;rounded=0;strokeWidth=3;" edge="1" parent="1">
          <mxGeometry width="50" height="50" relative="1" as="geometry">
            <mxPoint as="sourcePoint" />
            <mxPoint y="-500" as="targetPoint" />
          </mxGeometry>
        </mxCell>
        <mxCell id="0nrVe5YEfz76suIIfthU-2" value="" style="endArrow=classic;html=1;rounded=0;strokeWidth=3;" edge="1" parent="1">
          <mxGeometry width="50" height="50" relative="1" as="geometry">
            <mxPoint as="sourcePoint" />
            <mxPoint x="500" as="targetPoint" />
          </mxGeometry>
        </mxCell>
        <mxCell id="0nrVe5YEfz76suIIfthU-3" value="" style="endArrow=classic;html=1;rounded=0;entryX=1;entryY=0;entryDx=0;entryDy=0;strokeWidth=2;" edge="1" parent="1" target="nT0fC0NrmDzr177wuWXt-1">
          <mxGeometry width="50" height="50" relative="1" as="geometry">
            <mxPoint x="250" y="-250" as="sourcePoint" />
            <mxPoint x="300" y="-300" as="targetPoint" />
          </mxGeometry>
        </mxCell>
        <mxCell id="0nrVe5YEfz76suIIfthU-4" value="" style="ellipse;whiteSpace=wrap;html=1;aspect=fixed;fillColor=#000000;" vertex="1" parent="1">
          <mxGeometry x="247" y="-253" width="6" height="6" as="geometry" />
        </mxCell>
        <mxCell id="0nrVe5YEfz76suIIfthU-5" value="" style="endArrow=none;dashed=1;html=1;rounded=0;strokeWidth=1;" edge="1" parent="1">
          <mxGeometry width="50" height="50" relative="1" as="geometry">
            <mxPoint y="-250" as="sourcePoint" />
            <mxPoint x="500" y="-250" as="targetPoint" />
          </mxGeometry>
        </mxCell>
        <mxCell id="0nrVe5YEfz76suIIfthU-6" value="" style="endArrow=none;dashed=1;html=1;rounded=0;" edge="1" parent="1">
          <mxGeometry width="50" height="50" relative="1" as="geometry">
            <mxPoint x="250" y="-250" as="sourcePoint" />
            <mxPoint x="250" as="targetPoint" />
          </mxGeometry>
        </mxCell>
        <mxCell id="0nrVe5YEfz76suIIfthU-7" value="x" style="text;strokeColor=none;align=center;fillColor=none;html=1;verticalAlign=middle;whiteSpace=wrap;rounded=0;fontSize=30;fontStyle=1" vertex="1" parent="1">
          <mxGeometry x="220" width="60" height="30" as="geometry" />
        </mxCell>
        <mxCell id="0nrVe5YEfz76suIIfthU-8" value="y" style="text;strokeColor=none;align=center;fillColor=none;html=1;verticalAlign=middle;whiteSpace=wrap;rounded=0;fontSize=30;fontFamily=Helvetica;fontStyle=1" vertex="1" parent="1">
          <mxGeometry x="-40" y="-265" width="60" height="30" as="geometry" />
        </mxCell>
        <mxCell id="0nrVe5YEfz76suIIfthU-9" value="" style="ellipse;whiteSpace=wrap;html=1;aspect=fixed;fillColor=#000000;" vertex="1" parent="1">
          <mxGeometry x="-3" y="-3" width="6" height="6" as="geometry" />
        </mxCell>
        <mxCell id="0nrVe5YEfz76suIIfthU-10" value="&lt;font style=&quot;font-size: 30px;&quot;&gt;(x,y,θ)&lt;/font&gt;" style="text;strokeColor=none;align=center;fillColor=none;html=1;verticalAlign=middle;whiteSpace=wrap;rounded=0;fontSize=30;fontStyle=1" vertex="1" parent="1">
          <mxGeometry x="193" y="-315" width="60" height="30" as="geometry" />
        </mxCell>
        <mxCell id="0nrVe5YEfz76suIIfthU-11" value="" style="verticalLabelPosition=bottom;verticalAlign=top;html=1;shape=mxgraph.basic.arc;startAngle=0.3738712604630305;endAngle=0.5281820678719342;rotation=-90;strokeWidth=2;" vertex="1" parent="1">
          <mxGeometry x="210" y="-310" width="100" height="100" as="geometry" />
        </mxCell>
        <mxCell id="0nrVe5YEfz76suIIfthU-12" value="&lt;font style=&quot;font-size: 30px;&quot;&gt;&lt;br style=&quot;font-size: 30px;&quot;&gt;θ&lt;/font&gt;" style="text;strokeColor=none;align=center;fillColor=none;html=1;verticalAlign=middle;whiteSpace=wrap;rounded=0;fontSize=30;fontStyle=1" vertex="1" parent="1">
          <mxGeometry x="298" y="-315" width="60" height="30" as="geometry" />
        </mxCell>
        <mxCell id="0nrVe5YEfz76suIIfthU-14" value="&lt;b style=&quot;font-size: 40px;&quot;&gt;&lt;font style=&quot;font-size: 40px;&quot;&gt;O&lt;/font&gt;&lt;/b&gt;" style="text;strokeColor=none;align=center;fillColor=none;html=1;verticalAlign=middle;whiteSpace=wrap;rounded=0;fontSize=40;" vertex="1" parent="1">
          <mxGeometry x="-40" y="-3" width="60" height="30" as="geometry" />
        </mxCell>
        <mxCell id="0nrVe5YEfz76suIIfthU-15" value="&lt;b style=&quot;font-size: 40px;&quot;&gt;&lt;font style=&quot;font-size: 40px;&quot;&gt;X&lt;/font&gt;&lt;/b&gt;" style="text;strokeColor=none;align=center;fillColor=none;html=1;verticalAlign=middle;whiteSpace=wrap;rounded=0;fontSize=40;" vertex="1" parent="1">
          <mxGeometry x="439" y="8" width="60" height="30" as="geometry" />
        </mxCell>
        <mxCell id="0nrVe5YEfz76suIIfthU-16" value="&lt;b style=&quot;font-size: 40px;&quot;&gt;&lt;font style=&quot;font-size: 40px;&quot;&gt;Y&lt;/font&gt;&lt;/b&gt;" style="text;strokeColor=none;align=center;fillColor=none;html=1;verticalAlign=middle;whiteSpace=wrap;rounded=0;fontSize=40;" vertex="1" parent="1">
          <mxGeometry x="-48" y="-481" width="60" height="30" as="geometry" />
        </mxCell>
        <mxCell id="0nrVe5YEfz76suIIfthU-18" value="&lt;b style=&quot;&quot;&gt;&lt;font style=&quot;&quot;&gt;&lt;font style=&quot;font-size: 30px;&quot;&gt;O&lt;/font&gt;&lt;sub style=&quot;&quot;&gt;&lt;font style=&quot;font-size: 30px;&quot;&gt;c&lt;/font&gt;&lt;/sub&gt;&lt;/font&gt;&lt;/b&gt;" style="text;strokeColor=none;align=center;fillColor=none;html=1;verticalAlign=middle;whiteSpace=wrap;rounded=0;fontSize=40;" vertex="1" parent="1">
          <mxGeometry x="247" y="-247" width="60" height="30" as="geometry" />
        </mxCell>
        <mxCell id="0nrVe5YEfz76suIIfthU-21" value="a" style="text;strokeColor=none;align=center;fillColor=none;html=1;verticalAlign=middle;whiteSpace=wrap;rounded=0;fontSize=30;fontStyle=1" vertex="1" parent="1">
          <mxGeometry x="276" y="-345" width="60" height="30" as="geometry" />
        </mxCell>
      </root>
    </mxGraphModel>
  </diagram>
</mxfile>
